<svg width="105" height="63" viewBox="0 0 105 63" fill="none" xmlns="http://www.w3.org/2000/svg">
<g filter="url(#filter0_d_14403_355)">
<path d="M88.1314 32.639V20.003C88.1314 18.694 89.1764 17.633 90.4664 17.633L98.7924 19.214V11.02C98.7924 8.66497 97.0844 7.58897 94.5904 6.75497L71.4034 0.174968C73.0194 1.56597 73.2924 2.21497 73.2924 4.57097V49.78C73.2924 52.136 72.8424 53.846 71.3254 54.99L94.5904 47.925C96.9914 47.092 98.7924 43.709 98.7924 41.353V33.44L90.4664 35.007C89.1764 35.009 88.1314 33.947 88.1314 32.639Z" fill="#363636"/>
<path d="M99.1294 20.979L91.5314 19.535C90.5234 19.535 89.7074 20.364 89.7074 21.386V31.254C89.7074 32.277 90.5234 33.106 91.5314 33.106L99.1294 31.675C100.283 31.256 100.953 30.846 100.953 29.823V22.83C100.953 21.808 100.187 21.323 99.1294 20.979Z" fill="#363636"/>
<path d="M71.1704 4.48297C71.1704 -0.597033 66.9384 0.0239677 66.9384 0.0239677C66.9384 0.0239677 9.83241 4.73797 6.83841 5.14497C3.84441 5.55197 4.00141 9.53197 4.00141 9.53197C4.00141 9.53197 4.00041 42.069 4.00041 45.812C4.00041 49.555 6.59941 49.565 6.59941 49.565L23.0764 50.968L31.2124 39.3C31.2124 39.3 32.3214 37.472 33.7174 37.472C35.1144 37.472 36.1494 39.333 36.1494 39.333L45.2104 52.854C45.2104 52.854 64.1054 54.763 67.7314 54.763C71.3574 54.762 71.1704 49.739 71.1704 49.739C71.1704 49.739 71.1704 9.56297 71.1704 4.48297ZM16.9824 37.192C13.2844 37.192 10.2864 32.591 10.2864 26.917C10.2864 21.243 13.2844 16.642 16.9824 16.642C20.6804 16.642 23.6784 21.243 23.6784 26.917C23.6784 32.591 20.6804 37.192 16.9824 37.192ZM53.1404 38.618C48.4784 38.618 44.6994 33.379 44.6994 26.917C44.6994 20.454 48.4794 15.215 53.1404 15.215C57.8024 15.215 61.5824 20.454 61.5824 26.917C61.5824 33.379 57.8024 38.618 53.1404 38.618Z" fill="#363636"/>
</g>
<defs>
<filter id="filter0_d_14403_355" x="0" y="0" width="104.953" height="62.99" filterUnits="userSpaceOnUse" color-interpolation-filters="sRGB">
<feFlood flood-opacity="0" result="BackgroundImageFix"/>
<feColorMatrix in="SourceAlpha" type="matrix" values="0 0 0 0 0 0 0 0 0 0 0 0 0 0 0 0 0 0 127 0" result="hardAlpha"/>
<feOffset dy="4"/>
<feGaussianBlur stdDeviation="2"/>
<feComposite in2="hardAlpha" operator="out"/>
<feColorMatrix type="matrix" values="0 0 0 0 0 0 0 0 0 0 0 0 0 0 0 0 0 0 0.25 0"/>
<feBlend mode="normal" in2="BackgroundImageFix" result="effect1_dropShadow_14403_355"/>
<feBlend mode="normal" in="SourceGraphic" in2="effect1_dropShadow_14403_355" result="shape"/>
</filter>
</defs>
</svg>
